<svg width="21" height="25" viewBox="0 0 21 25" fill="none" xmlns="http://www.w3.org/2000/svg">
<path d="M10.4951 0.742257C10.5342 0.971749 11.2812 5.35652 11.2812 7.03132C11.2812 9.58503 9.92383 11.4063 7.91699 12.1387L8.54688 23.7647C8.58105 24.4337 8.04883 25.0001 7.375 25.0001H4.25C3.58105 25.0001 3.04395 24.4385 3.07812 23.7647L3.70801 12.1387C1.69629 11.4063 0.34375 9.58015 0.34375 7.03132C0.34375 5.35163 1.09082 0.971749 1.12988 0.742257C1.28613 -0.248954 3.3418 -0.263602 3.46875 0.795968V7.6905C3.53223 7.85652 4.20605 7.84675 4.25 7.6905C4.31836 6.45515 4.63574 0.893624 4.64062 0.766671C4.80176 -0.248954 6.82324 -0.248954 6.97949 0.766671C6.98926 0.898507 7.30176 6.45515 7.37012 7.6905C7.41406 7.84675 8.09277 7.85652 8.15137 7.6905V0.795968C8.27832 -0.258719 10.3389 -0.248954 10.4951 0.742257ZM16.3154 14.6925L15.583 23.7305C15.5244 24.4141 16.0664 25.0001 16.75 25.0001H19.4844C20.1338 25.0001 20.6562 24.4776 20.6562 23.8282V1.17194C20.6562 0.527413 20.1338 6.97878e-05 19.4844 6.97878e-05C15.4561 6.97878e-05 8.67383 8.71589 16.3154 14.6925Z" fill="#323232"/>
</svg>
