<svg width="25" height="21" viewBox="0 0 25 21" fill="none" xmlns="http://www.w3.org/2000/svg">
<path d="M0 4.49571V19.527C0 20.0183 0.496094 20.3542 0.952257 20.1719L6.94444 17.4445V0.777832L0.873264 3.20622C0.615529 3.3093 0.394588 3.48724 0.238936 3.71708C0.083285 3.94692 6.17278e-05 4.21813 0 4.49571H0ZM8.33333 17.4445L16.6667 20.2223V3.55561L8.33333 0.777832V17.4445ZM24.0477 0.828179L18.0556 3.55561V20.2223L24.1267 17.7939C24.3845 17.6909 24.6055 17.5129 24.7611 17.2831C24.9168 17.0532 25 16.782 25 16.5044V1.47314C25 0.981825 24.5039 0.645888 24.0477 0.828179Z" fill="#323232"/>
</svg>
