<svg width="25" height="25" viewBox="0 0 25 25" fill="none" xmlns="http://www.w3.org/2000/svg">
<g clip-path="url(#clip0_954_1505)">
<path d="M12.1689 7.82387L4.16671 14.4146V21.5279C4.16671 21.712 4.23987 21.8887 4.3701 22.0189C4.50034 22.1491 4.67697 22.2223 4.86115 22.2223L9.72487 22.2097C9.90844 22.2088 10.0842 22.1352 10.2137 22.0051C10.3432 21.875 10.4158 21.6989 10.4158 21.5153V17.3612C10.4158 17.177 10.489 17.0004 10.6192 16.8701C10.7495 16.7399 10.9261 16.6667 11.1103 16.6667H13.8881C14.0722 16.6667 14.2489 16.7399 14.3791 16.8701C14.5093 17.0004 14.5825 17.177 14.5825 17.3612V21.5122C14.5822 21.6036 14.6 21.6941 14.6347 21.7787C14.6695 21.8632 14.7206 21.94 14.7851 22.0047C14.8496 22.0694 14.9263 22.1207 15.0107 22.1558C15.0951 22.1908 15.1856 22.2088 15.2769 22.2088L20.1389 22.2223C20.3231 22.2223 20.4997 22.1491 20.63 22.0189C20.7602 21.8887 20.8334 21.712 20.8334 21.5279V14.4098L12.8329 7.82387C12.7389 7.74805 12.6217 7.70671 12.5009 7.70671C12.3801 7.70671 12.2629 7.74805 12.1689 7.82387ZM24.8091 12.3035L21.1806 9.31258V3.30086C21.1806 3.16273 21.1257 3.03025 21.028 2.93258C20.9304 2.8349 20.7979 2.78003 20.6598 2.78003H18.2292C18.0911 2.78003 17.9586 2.8349 17.8609 2.93258C17.7632 3.03025 17.7084 3.16273 17.7084 3.30086V6.45234L13.8225 3.25529C13.4496 2.94842 12.9817 2.78064 12.4987 2.78064C12.0158 2.78064 11.5479 2.94842 11.175 3.25529L0.188408 12.3035C0.135668 12.3471 0.0920346 12.4006 0.0599998 12.4611C0.0279651 12.5215 0.00815734 12.5877 0.00170829 12.6558C-0.00474076 12.7239 0.00229532 12.7927 0.0224145 12.8581C0.0425336 12.9235 0.0753416 12.9843 0.118964 13.037L1.22573 14.3825C1.26924 14.4354 1.32275 14.4792 1.3832 14.5113C1.44365 14.5435 1.50986 14.5635 1.57803 14.5701C1.6462 14.5766 1.715 14.5697 1.78049 14.5496C1.84598 14.5296 1.90687 14.4968 1.95968 14.4532L12.1689 6.04435C12.2629 5.96854 12.3801 5.9272 12.5009 5.9272C12.6217 5.9272 12.7389 5.96854 12.8329 6.04435L23.0426 14.4532C23.0953 14.4968 23.1561 14.5296 23.2215 14.5498C23.2869 14.5699 23.3556 14.5769 23.4237 14.5705C23.4918 14.564 23.558 14.5442 23.6185 14.5122C23.6789 14.4801 23.7325 14.4365 23.7761 14.3838L24.8829 13.0383C24.9264 12.9853 24.9591 12.9242 24.979 12.8585C24.9989 12.7928 25.0056 12.7238 24.9987 12.6555C24.9919 12.5872 24.9716 12.521 24.939 12.4606C24.9065 12.4002 24.8623 12.3468 24.8091 12.3035Z" fill="#323232"/>
</g>
<defs>
<clipPath id="clip0_954_1505">
<rect width="25" height="25" fill="white"/>
</clipPath>
</defs>
</svg>
