<svg width="19" height="25" viewBox="0 0 25 25" fill="none" xmlns="http://www.w3.org/2000/svg">
<path d="M5.98436 3.51562C5.98436 1.57397 7.55834 0 9.49999 0C11.4416 0 13.0156 1.57397 13.0156 3.51562C13.0156 5.45723 11.4416 7.03125 9.49999 7.03125C7.55834 7.03125 5.98436 5.45723 5.98436 3.51562ZM18.4173 3.58267C17.8072 2.97246 16.8178 2.97246 16.2077 3.58267L11.9778 7.8125H7.02216L2.79232 3.58267C2.18217 2.97246 1.19281 2.97246 0.582654 3.58267C-0.0275513 4.19287 -0.0275513 5.18218 0.582654 5.79238L5.20311 10.4128V23.4375C5.20311 24.3004 5.90267 25 6.76561 25H7.54686C8.4098 25 9.10936 24.3004 9.10936 23.4375V17.9688H9.89061V23.4375C9.89061 24.3004 10.5902 25 11.4531 25H12.2344C13.0973 25 13.7969 24.3004 13.7969 23.4375V10.4128L18.4173 5.79233C19.0275 5.18213 19.0275 4.19287 18.4173 3.58267Z" fill="#323232"/>
</svg>
