<svg width="25" height="25" viewBox="0 0 25 25" fill="none" xmlns="http://www.w3.org/2000/svg">
<g clip-path="url(#clip0_954_1241)">
<path d="M0 6.49571V21.527C0 22.0183 0.496094 22.3542 0.952257 22.1719L6.94444 19.4445V2.77783L0.873264 5.20622C0.615529 5.3093 0.394588 5.48724 0.238936 5.71708C0.083285 5.94692 6.17278e-05 6.21813 0 6.49571H0ZM8.33333 19.4445L16.6667 22.2223V5.55561L8.33333 2.77783V19.4445ZM24.0477 2.82818L18.0556 5.55561V22.2223L24.1267 19.7939C24.3845 19.6909 24.6055 19.5129 24.7611 19.2831C24.9168 19.0532 25 18.782 25 18.5044V3.47314C25 2.98183 24.5039 2.64589 24.0477 2.82818Z" fill="#323232"/>
</g>
<defs>
<clipPath id="clip0_954_1241">
<rect width="25" height="25" fill="white"/>
</clipPath>
</defs>
</svg>
