<svg width="25" height="25" viewBox="0 0 25 25" fill="none" xmlns="http://www.w3.org/2000/svg">
<g clip-path="url(#clip0_954_1245)">
<path d="M22.9678 0.0737427L7.34424 4.68751C7.02709 4.78714 6.74999 4.98531 6.5532 5.25322C6.35641 5.52114 6.2502 5.84484 6.25 6.17726V18.9414C5.73835 18.8172 5.21399 18.753 4.6875 18.75C2.09961 18.75 0 20.1494 0 21.875C0 23.6006 2.09961 25 4.6875 25C7.27539 25 9.375 23.6006 9.375 21.875V10.4649L21.875 6.80275V15.8169C21.3634 15.6923 20.839 15.6279 20.3125 15.625C17.7246 15.625 15.625 17.0244 15.625 18.75C15.625 20.4756 17.7246 21.875 20.3125 21.875C22.9004 21.875 25 20.4761 25 18.75V1.56251C24.9998 1.31722 24.9418 1.07543 24.8308 0.856701C24.7197 0.637977 24.5588 0.448465 24.3609 0.303505C24.163 0.158544 23.9338 0.0622079 23.6918 0.0222917C23.4497 -0.0176244 23.2017 1.43331e-06 22.9678 0.0737427Z" fill="#323232"/>
</g>
<defs>
<clipPath id="clip0_954_1245">
<rect width="25" height="25" fill="white"/>
</clipPath>
</defs>
</svg>
