<svg width="20" height="20" viewBox="0 0 39 39" fill="none" xmlns="http://www.w3.org/2000/svg">
<path d="M35.7581 22.5686L38.9589 8.48522C39.19 7.46838 38.4171 6.50008 37.3743 6.50008H10.7797L10.1591 3.46607C10.0044 2.70984 9.33901 2.16675 8.56707 2.16675H1.625C0.727526 2.16675 0 2.89427 0 3.79175V4.87508C0 5.77256 0.727526 6.50008 1.625 6.50008H6.35666L11.113 29.7535C9.97513 30.4079 9.20833 31.6349 9.20833 33.0417C9.20833 35.1358 10.9059 36.8334 13 36.8334C15.0941 36.8334 16.7917 35.1358 16.7917 33.0417C16.7917 31.9805 16.3552 31.0217 15.6525 30.3334H29.8474C29.1448 31.0217 28.7083 31.9805 28.7083 33.0417C28.7083 35.1358 30.4059 36.8334 32.5 36.8334C34.5941 36.8334 36.2917 35.1358 36.2917 33.0417C36.2917 31.5405 35.419 30.2432 34.1535 29.6289L34.5271 27.9852C34.7581 26.9684 33.9853 26.0001 32.9425 26.0001H14.7683L14.3252 23.8334H34.1735C34.9323 23.8334 35.59 23.3084 35.7581 22.5686Z" fill="#323232"/>
</svg>
